<svg xmlns="http://www.w3.org/2000/svg"  width="345" height="285" >
<g>
<line x1="40" y1="40"  x2="40" y2="240" style=" stroke: black;"/>
<line x1="40" y1="240"  x2="340" y2="240" style=" stroke: black;"/>
<line x1="37" y1="220"  x2="40" y2="220" style=" stroke: black;"/>
<text x="8" y="220" style="font-family: monospace; font-size: 8px;">0.02</text>
<line x1="37" y1="200"  x2="40" y2="200" style=" stroke: black;"/>
<text x="8" y="200" style="font-family: monospace; font-size: 8px;">0.03</text>
<line x1="37" y1="180"  x2="40" y2="180" style=" stroke: black;"/>
<text x="8" y="180" style="font-family: monospace; font-size: 8px;">0.05</text>
<line x1="37" y1="160"  x2="40" y2="160" style=" stroke: black;"/>
<text x="8" y="160" style="font-family: monospace; font-size: 8px;">0.06</text>
<line x1="37" y1="140"  x2="40" y2="140" style=" stroke: black;"/>
<text x="8" y="140" style="font-family: monospace; font-size: 8px;">0.08</text>
<line x1="37" y1="120"  x2="40" y2="120" style=" stroke: black;"/>
<text x="8" y="120" style="font-family: monospace; font-size: 8px;">0.09</text>
<line x1="37" y1="100"  x2="40" y2="100" style=" stroke: black;"/>
<text x="8" y="100" style="font-family: monospace; font-size: 8px;">0.11</text>
<line x1="37" y1="80"  x2="40" y2="80" style=" stroke: black;"/>
<text x="8" y="80" style="font-family: monospace; font-size: 8px;">0.12</text>
<line x1="37" y1="60"  x2="40" y2="60" style=" stroke: black;"/>
<text x="8" y="60" style="font-family: monospace; font-size: 8px;">0.14</text>
<line x1="37" y1="40"  x2="40" y2="40" style=" stroke: black;"/>
<text x="8" y="40" style="font-family: monospace; font-size: 8px;">0.16</text>
<line x1="70" y1="240"  x2="70" y2="245" style=" stroke: black;"/>
<text x="70" y="245" transform="rotate(90,70,245)" style="font-family: monospace; font-size: 8px;">1193</text>
<line x1="100" y1="240"  x2="100" y2="245" style=" stroke: black;"/>
<text x="100" y="245" transform="rotate(90,100,245)" style="font-family: monospace; font-size: 8px;">2386</text>
<line x1="130" y1="240"  x2="130" y2="245" style=" stroke: black;"/>
<text x="130" y="245" transform="rotate(90,130,245)" style="font-family: monospace; font-size: 8px;">3579</text>
<line x1="160" y1="240"  x2="160" y2="245" style=" stroke: black;"/>
<text x="160" y="245" transform="rotate(90,160,245)" style="font-family: monospace; font-size: 8px;">4772</text>
<line x1="190" y1="240"  x2="190" y2="245" style=" stroke: black;"/>
<text x="190" y="245" transform="rotate(90,190,245)" style="font-family: monospace; font-size: 8px;">5965</text>
<line x1="220" y1="240"  x2="220" y2="245" style=" stroke: black;"/>
<text x="220" y="245" transform="rotate(90,220,245)" style="font-family: monospace; font-size: 8px;">7158</text>
<line x1="250" y1="240"  x2="250" y2="245" style=" stroke: black;"/>
<text x="250" y="245" transform="rotate(90,250,245)" style="font-family: monospace; font-size: 8px;">8351</text>
<line x1="280" y1="240"  x2="280" y2="245" style=" stroke: black;"/>
<text x="280" y="245" transform="rotate(90,280,245)" style="font-family: monospace; font-size: 8px;">9544</text>
<line x1="310" y1="240"  x2="310" y2="245" style=" stroke: black;"/>
<text x="310" y="245" transform="rotate(90,310,245)" style="font-family: monospace; font-size: 8px;">10737</text>
<line x1="340" y1="240"  x2="340" y2="245" style=" stroke: black;"/>
<text x="340" y="245" transform="rotate(90,340,245)" style="font-family: monospace; font-size: 8px;">11930</text>
<text x="5" y="8" style="font-family: monospace; font-size: 10px;">Dist. Dt</text>
<text x="320" y="230" style="font-family: monospace; font-size: 10px;">Rank</text>
<polyline style="stroke: #00a5eb; stroke-width:1;fill: none;"  points="40 240,41 240,42 240,43 240,44 240,45 240,46 240,47 240,48 240,49 240,50 240,51 240,52 240,53 240,54 240,55 240,56 240,57 240,58 240,59 240,60 240,61 240,62 240,63 240,64 240,65 240,66 240,66 237,67 237,68 237,69 237,70 237,71 237,72 237,73 237,74 237,75 237,76 237,76 235,77 235,78 235,79 235,80 235,81 235,82 235,83 235,84 235,85 235,85 232,86 232,87 232,88 232,89 232,90 232,91 232,92 232,93 232,94 232,95 232,96 232,97 232,98 232,99 232,100 232,101 232,102 232,103 232,104 232,105 232,106 232,107 232,108 232,109 232,110 232,111 232,112 232,113 232,114 232,115 232,116 232,117 232,118 232,119 232,119 230,120 230,121 230,122 230,123 230,124 230,125 230,126 230,127 230,128 230,129 230,130 230,131 230,132 230,133 230,133 227,134 227,135 227,136 227,137 227,138 227,139 227,140 227,140 225,141 225,142 225,142 222,143 222,144 222,145 222,145 220,146 220,147 220,147 217,148 217,149 217,150 217,151 217,151 215,152 215,153 215,154 215,155 215,156 215,156 212,157 212,158 212,158 210,159 210,159 209,159 207,160 207,160 205,160 204,160 202,161 202,161 199,161 197,161 194,162 194,162 192,162 191,162 189,162 186,162 181,162 144,163 144,163 141,164 141,164 139,164 138,164 136,165 136,165 133,166 133,166 130,166 125,166 122,166 111,166 110,166 108,167 108,167 107,167 105,168 105,169 105,169 104,169 103,169 102,170 102,170 101,170 100,170 99,171 99,171 97,171 96,172 96,172 94,173 94,173 93,174 93,174 91,175 91,175 90,176 90,176 88,176 87,177 87,178 87,179 87,179 85,180 85,181 85,181 84,182 84,183 84,183 82,184 82,185 82,186 82,187 82,187 81,188 81,188 79,189 79,190 79,191 79,192 79,192 78,193 78,193 76,194 76,195 76,196 76,196 75,197 75,198 75,199 75,200 75,200 73,201 73,202 73,203 73,204 73,205 73,206 73,207 73,208 73,209 73,210 73,211 73,212 73,213 73,214 73,214 72,214 71,214 70,215 70,216 70,217 70,218 70,219 70,220 70,221 70,222 70,223 70,224 70,225 70,226 70,227 70,228 70,229 70,230 70,231 70,232 70,233 70,234 70,235 70,236 70,237 70,238 70,239 70,239 69,240 69,240 68,241 68,241 67,242 67,243 67,244 67,245 67,246 67,247 67,248 67,249 67,250 67,251 67,252 67,253 67,254 67,255 67,256 67,257 67,258 67,259 67,260 67,261 67,262 67,263 67,264 67,265 67,266 67,266 66,267 66,268 66,269 66,269 65,270 65,270 64,271 64,272 64,273 64,274 64,275 64,276 64,277 64,278 64,279 64,280 64,281 64,282 64,283 64,284 64,285 64,286 64,287 64,288 64,289 64,290 64,291 64,292 64,293 64,294 64,295 64,296 64,297 64,298 64,299 64,300 64,300 63,300 62,301 61,302 61,303 61,304 61,305 61,306 61,307 61,308 61,309 61,310 61,311 61,312 61,313 61,314 61,315 61,316 61,317 61,318 61,318 60,318 59,318 58,319 58,320 58,321 58,322 58,323 58,323 57,323 55,324 55,325 55,326 55,326 54,327 54,328 54,329 54,329 52,330 51,330 49,331 49,332 49,333 49,333 48,334 48,335 48,336 48,336 46,337 46,337 45,338 45,338 43,339 43,339 42,339 40,339 39"/><line id="CutDis10" visibility="hidden" x1="40" y1="235"  x2="340" y2="235" style=" stroke: red;"/>
<line id="CutDis9" visibility="hidden" x1="40" y1="238"  x2="340" y2="238" style=" stroke: red;"/>
<line id="CutDis8" visibility="hidden" x1="40" y1="225"  x2="340" y2="225" style=" stroke: red;"/>
<line id="CutDis7" visibility="hidden" x1="40" y1="227"  x2="340" y2="227" style=" stroke: red;"/>
<line id="CutDis6" visibility="hidden" x1="40" y1="217"  x2="340" y2="217" style=" stroke: red;"/>
<line id="CutDis5" visibility="hidden" x1="40" y1="221"  x2="340" y2="221" style=" stroke: red;"/>
<line id="CutDis4" visibility="hidden" x1="40" y1="109"  x2="340" y2="109" style=" stroke: red;"/>
<line id="CutDis3" visibility="hidden" x1="40" y1="110"  x2="340" y2="110" style=" stroke: red;"/>
<line id="CutDis2" visibility="hidden" x1="40" y1="127"  x2="340" y2="127" style=" stroke: red;"/>
<line id="CutDis1" visibility="hidden" x1="40" y1="178"  x2="340" y2="178" style=" stroke: red;"/>

</g>
</svg>
