<svg xmlns="http://www.w3.org/2000/svg"  width="345" height="285" >
<g>
<line x1="40" y1="40"  x2="40" y2="240" style=" stroke: black;"/>
<line x1="40" y1="240"  x2="340" y2="240" style=" stroke: black;"/>
<line x1="37" y1="220"  x2="40" y2="220" style=" stroke: black;"/>
<text x="8" y="220" style="font-family: monospace; font-size: 8px;">0.00</text>
<line x1="37" y1="200"  x2="40" y2="200" style=" stroke: black;"/>
<text x="8" y="200" style="font-family: monospace; font-size: 8px;">0.00</text>
<line x1="37" y1="180"  x2="40" y2="180" style=" stroke: black;"/>
<text x="8" y="180" style="font-family: monospace; font-size: 8px;">0.00</text>
<line x1="37" y1="160"  x2="40" y2="160" style=" stroke: black;"/>
<text x="8" y="160" style="font-family: monospace; font-size: 8px;">0.00</text>
<line x1="37" y1="140"  x2="40" y2="140" style=" stroke: black;"/>
<text x="8" y="140" style="font-family: monospace; font-size: 8px;">0.01</text>
<line x1="37" y1="120"  x2="40" y2="120" style=" stroke: black;"/>
<text x="8" y="120" style="font-family: monospace; font-size: 8px;">0.01</text>
<line x1="37" y1="100"  x2="40" y2="100" style=" stroke: black;"/>
<text x="8" y="100" style="font-family: monospace; font-size: 8px;">0.01</text>
<line x1="37" y1="80"  x2="40" y2="80" style=" stroke: black;"/>
<text x="8" y="80" style="font-family: monospace; font-size: 8px;">0.01</text>
<line x1="37" y1="60"  x2="40" y2="60" style=" stroke: black;"/>
<text x="8" y="60" style="font-family: monospace; font-size: 8px;">0.01</text>
<line x1="37" y1="40"  x2="40" y2="40" style=" stroke: black;"/>
<text x="8" y="40" style="font-family: monospace; font-size: 8px;">0.01</text>
<line x1="70" y1="240"  x2="70" y2="245" style=" stroke: black;"/>
<text x="70" y="245" transform="rotate(90,70,245)" style="font-family: monospace; font-size: 8px;">1193</text>
<line x1="100" y1="240"  x2="100" y2="245" style=" stroke: black;"/>
<text x="100" y="245" transform="rotate(90,100,245)" style="font-family: monospace; font-size: 8px;">2386</text>
<line x1="130" y1="240"  x2="130" y2="245" style=" stroke: black;"/>
<text x="130" y="245" transform="rotate(90,130,245)" style="font-family: monospace; font-size: 8px;">3579</text>
<line x1="160" y1="240"  x2="160" y2="245" style=" stroke: black;"/>
<text x="160" y="245" transform="rotate(90,160,245)" style="font-family: monospace; font-size: 8px;">4772</text>
<line x1="190" y1="240"  x2="190" y2="245" style=" stroke: black;"/>
<text x="190" y="245" transform="rotate(90,190,245)" style="font-family: monospace; font-size: 8px;">5965</text>
<line x1="220" y1="240"  x2="220" y2="245" style=" stroke: black;"/>
<text x="220" y="245" transform="rotate(90,220,245)" style="font-family: monospace; font-size: 8px;">7158</text>
<line x1="250" y1="240"  x2="250" y2="245" style=" stroke: black;"/>
<text x="250" y="245" transform="rotate(90,250,245)" style="font-family: monospace; font-size: 8px;">8351</text>
<line x1="280" y1="240"  x2="280" y2="245" style=" stroke: black;"/>
<text x="280" y="245" transform="rotate(90,280,245)" style="font-family: monospace; font-size: 8px;">9544</text>
<line x1="310" y1="240"  x2="310" y2="245" style=" stroke: black;"/>
<text x="310" y="245" transform="rotate(90,310,245)" style="font-family: monospace; font-size: 8px;">10737</text>
<line x1="340" y1="240"  x2="340" y2="245" style=" stroke: black;"/>
<text x="340" y="245" transform="rotate(90,340,245)" style="font-family: monospace; font-size: 8px;">11930</text>
<text x="5" y="8" style="font-family: monospace; font-size: 10px;">Dist. Dt</text>
<text x="320" y="230" style="font-family: monospace; font-size: 10px;">Rank</text>
<polyline style="stroke: #00a5eb; stroke-width:1;fill: none;"  points="40 240,41 240,42 240,43 240,44 240,45 240,46 240,47 240,48 240,49 240,50 240,51 240,52 240,53 240,54 240,55 240,56 240,57 240,58 240,59 240,60 240,61 240,62 240,63 240,64 240,65 240,66 240,67 240,68 240,69 240,70 240,71 240,72 240,73 240,74 240,75 240,76 240,77 240,78 240,79 240,80 240,81 240,82 240,83 240,84 240,85 240,86 240,87 240,88 240,89 240,90 240,91 240,92 240,93 240,94 240,95 240,96 240,97 240,98 240,99 240,100 240,101 240,102 240,103 240,104 240,105 240,106 240,107 240,108 240,109 240,110 240,111 240,112 240,113 240,114 240,115 240,116 240,117 240,118 240,119 240,120 240,121 240,122 240,123 240,124 240,125 240,126 240,127 240,128 240,129 240,130 240,131 240,132 240,133 240,134 240,135 240,136 240,137 240,138 240,139 240,140 240,141 240,142 240,143 240,144 240,145 240,146 240,147 240,148 240,149 240,150 240,151 240,152 240,153 240,154 240,155 240,156 240,157 240,158 240,159 240,160 240,161 240,162 240,163 240,164 240,165 240,166 240,166 200,166 160,167 160,168 160,169 160,170 160,171 160,172 160,173 160,174 160,175 160,176 160,177 160,178 160,179 160,180 160,181 160,182 160,183 160,184 160,185 160,186 160,187 160,188 160,189 160,190 160,191 160,192 160,193 160,194 160,195 160,196 160,197 160,198 160,199 160,200 160,201 160,202 160,203 160,204 160,205 160,206 160,207 160,208 160,209 160,210 160,211 160,212 160,213 160,214 160,215 160,216 160,217 160,218 160,219 160,220 160,221 160,222 160,223 160,224 160,225 160,226 160,227 160,228 160,229 160,230 160,231 160,232 160,233 160,234 160,235 160,236 160,237 160,238 160,239 160,240 160,241 160,242 160,243 160,244 160,245 160,246 160,247 160,248 160,249 160,250 160,251 160,252 160,253 160,254 160,255 160,256 160,257 160,258 160,259 160,260 160,261 160,262 160,263 160,264 160,265 160,266 160,267 160,268 160,269 160,270 160,271 160,272 160,273 160,274 160,275 160,276 160,277 160,278 160,279 160,280 160,281 160,282 160,283 160,284 160,285 160,286 160,287 160,288 160,289 160,290 160,291 160,292 160,293 160,294 160,295 160,296 160,297 160,297 120,298 120,299 120,300 120,301 120,302 120,303 120,304 120,305 120,306 120,307 120,308 120,309 120,310 120,311 120,312 120,313 120,314 120,315 120,316 120,316 80,317 80,318 80,319 80,320 80,320 40,321 40,322 40,323 40,324 40,325 40,326 40,327 40,328 40,329 40,330 40,331 40,332 40,333 40,334 40,335 40,336 40,337 40,338 40,339 40,339 40"/><line id="CutDis3" visibility="hidden" x1="40" y1="240"  x2="340" y2="240" style=" stroke: red;"/>
<line id="CutDis2" visibility="hidden" x1="40" y1="220"  x2="340" y2="220" style=" stroke: red;"/>
<line id="CutDis1" visibility="hidden" x1="40" y1="180"  x2="340" y2="180" style=" stroke: red;"/>

</g>
</svg>
